<?xml version="1.0" standalone="no"?>
<!DOCTYPE svg PUBLIC "-//W3C//DTD SVG 20010904//EN"
 "http://www.w3.org/TR/2001/REC-SVG-20010904/DTD/svg10.dtd">
<svg version="1.0" xmlns="http://www.w3.org/2000/svg"
 width="616.000000pt" height="112.000000pt" viewBox="0 0 616.000000 112.000000"
 preserveAspectRatio="xMidYMid meet">

<g transform="translate(0.000000,112.000000) scale(0.100000,-0.100000)"
fill="#000000" stroke="none">
<path d="M421 1100 c-189 -50 -332 -186 -397 -380 -28 -83 -26 -244 4 -332 29
-85 87 -174 154 -239 65 -62 189 -124 278 -139 46 -8 820 -10 2660 -8 l2595 3
58 22 c154 59 263 155 327 288 109 226 62 479 -122 656 -63 60 -187 123 -272
138 -41 8 -849 11 -2635 10 -2514 0 -2578 -1 -2650 -19z m262 -419 c98 -57
176 -107 175 -112 -2 -5 -88 -62 -193 -128 l-190 -119 -6 126 c-4 70 -7 180
-8 246 l-1 118 23 -14 c12 -8 102 -61 200 -117z m2281 -15 c73 -30 97 -112 51
-172 -94 -123 -303 2 -214 128 38 53 101 70 163 44z m1736 -108 c-25 -20 -38
-22 -59 -9 -17 11 -5 32 14 24 9 -3 15 1 15 8 0 10 3 10 12 1 19 -19 32 -14
17 6 -13 16 -12 16 5 2 17 -14 17 -15 -4 -32z m-1949 3 c-6 -10 -7 -22 -3 -26
4 -5 1 -5 -6 -1 -9 5 -9 12 -2 27 6 10 13 19 16 19 2 0 0 -8 -5 -19z m1969
-16 c-7 -8 -17 -15 -23 -15 -6 0 -2 7 9 15 25 19 30 19 14 0z"/>
<path d="M4647 558 c6 -11 31 -10 37 1 3 5 -5 8 -18 7 -13 0 -22 -4 -19 -8z"/>
</g>
</svg>
